<?xml version="1.0"?>
<svg fill="#fff" xmlns="http://www.w3.org/2000/svg" id="Outline" viewBox="0 0 512 512" width="512" height="512"><path d="M472,24H40A24.028,24.028,0,0,0,16,48V464a24.028,24.028,0,0,0,24,24H472a24.028,24.028,0,0,0,24-24V48A24.028,24.028,0,0,0,472,24ZM40,40H472a8.009,8.009,0,0,1,8,8V88H32V48A8.009,8.009,0,0,1,40,40ZM472,472H40a8.009,8.009,0,0,1-8-8V104H480V464A8.009,8.009,0,0,1,472,472Z"/><circle cx="120" cy="64" r="8"/><circle cx="88" cy="64" r="8"/><circle cx="56" cy="64" r="8"/><path d="M232,136H72a8,8,0,0,0-8,8V272a8,8,0,0,0,8,8H232a8,8,0,0,0,8-8V144A8,8,0,0,0,232,136Zm-8,16V252.687l-34.343-34.344a8,8,0,0,0-11.314,0l-23.192,23.192L126.4,203.2a8,8,0,0,0-12.8,0L80,248V152ZM152,264H88l32-42.667Zm12.849-9.535L184,235.313,212.687,264H172Z"/><path d="M72,328h64a8,8,0,0,0,0-16H72a8,8,0,0,0,0,16Z"/><path d="M232,312H168a8,8,0,0,0,0,16h64a8,8,0,0,0,0-16Z"/><path d="M232,376H72a8,8,0,0,0,0,16H232a8,8,0,0,0,0-16Z"/><path d="M72,360H88a8,8,0,0,0,0-16H72a8,8,0,0,0,0,16Z"/><path d="M176,408H72a8,8,0,0,0,0,16H176a8,8,0,0,0,0-16Z"/><path d="M232,344H120a8,8,0,0,0,0,16H232a8,8,0,0,0,0-16Z"/><path d="M232,408H208a8,8,0,0,0,0,16h24a8,8,0,0,0,0-16Z"/><path d="M280,168h64a8,8,0,0,0,0-16H280a8,8,0,0,0,0,16Z"/><path d="M440,152H376a8,8,0,0,0,0,16h64a8,8,0,0,0,0-16Z"/><path d="M440,216H280a8,8,0,0,0,0,16H440a8,8,0,0,0,0-16Z"/><path d="M280,200h16a8,8,0,0,0,0-16H280a8,8,0,0,0,0,16Z"/><path d="M280,264H384a8,8,0,0,0,0-16H280a8,8,0,0,0,0,16Z"/><path d="M440,184H328a8,8,0,0,0,0,16H440a8,8,0,0,0,0-16Z"/><path d="M440,248H416a8,8,0,0,0,0,16h24a8,8,0,0,0,0-16Z"/><circle cx="160" cy="192" r="8"/><path d="M440,296H280a8,8,0,0,0-8,8V432a8,8,0,0,0,8,8H440a8,8,0,0,0,8-8V304A8,8,0,0,0,440,296Zm-8,16V412.687l-34.343-34.344a8,8,0,0,0-11.314,0l-23.192,23.192L334.4,363.2a8,8,0,0,0-12.8,0L288,408V312ZM360,424H296l32-42.667Zm12.849-9.535L392,395.313,420.687,424H380Z"/><circle cx="368" cy="352" r="8"/></svg>
